<svg xmlns="http://www.w3.org/2000/svg" xmlns:xlink="http://www.w3.org/1999/xlink" width="500" zoomAndPan="magnify" viewBox="0 0 375 374.999991" height="500" preserveAspectRatio="xMidYMid meet" version="1.0"><defs><clipPath id="cfed3cf838"><path d="M 100 64.871094 L 275 64.871094 L 275 289.871094 L 100 289.871094 Z M 100 64.871094 " clip-rule="nonzero"/></clipPath></defs><g clip-path="url(#cfed3cf838)"><path fill="#000000" d="M 260.867188 263.613281 C 254.742188 256.394531 253.445312 246.289062 254.394531 237.144531 C 255.535156 226.175781 260.167969 215.925781 263.828125 205.632812 C 265.6875 200.386719 267.378906 195.042969 268.207031 189.550781 C 269 184.148438 269.183594 178.730469 268.753906 173.289062 C 267.90625 162.222656 264.90625 151.359375 260.804688 141.046875 C 260.304688 139.785156 259.785156 138.535156 259.25 137.289062 C 259.207031 137.191406 259.148438 137.109375 259.074219 137.035156 C 259.695312 136.117188 260.242188 135.152344 260.714844 134.148438 C 263.476562 128.210938 263.316406 121.449219 262.714844 115.070312 C 262.234375 109.125 261.410156 103.222656 260.242188 97.371094 C 259.035156 91.746094 257.207031 86.171875 254.207031 81.234375 C 253.464844 80.007812 252.648438 78.832031 251.757812 77.707031 C 250.867188 76.585938 249.910156 75.519531 248.886719 74.519531 C 247.859375 73.519531 246.777344 72.585938 245.632812 71.71875 C 244.488281 70.855469 243.292969 70.066406 242.050781 69.355469 C 240.808594 68.640625 239.523438 68.011719 238.199219 67.460938 C 236.875 66.910156 235.523438 66.445312 234.140625 66.070312 C 232.757812 65.691406 231.355469 65.402344 229.9375 65.203125 C 228.515625 65 227.089844 64.890625 225.65625 64.871094 C 222.816406 64.859375 220.023438 65.203125 217.273438 65.902344 C 214.519531 66.601562 211.898438 67.636719 209.410156 69 C 206.925781 70.355469 204.644531 71.988281 202.5625 73.910156 C 201.554688 74.84375 200.613281 75.84375 199.734375 76.902344 C 198.769531 78.027344 197.964844 79.242188 197.09375 80.425781 C 196.359375 81.507812 195.417969 82.359375 194.261719 82.976562 L 194.070312 83.0625 L 193.734375 83.1875 C 193.460938 83.277344 193.183594 83.351562 192.902344 83.40625 L 192.726562 83.441406 L 192.601562 83.441406 L 192.363281 83.464844 C 192.070312 83.492188 191.78125 83.503906 191.492188 83.5 C 190.40625 83.480469 189.347656 83.320312 188.304688 83.019531 C 187.09375 82.710938 185.898438 82.320312 184.710938 81.941406 C 182.304688 81.171875 179.832031 80.394531 177.285156 80.367188 C 176.101562 80.335938 174.953125 80.515625 173.835938 80.902344 C 172.71875 81.289062 171.703125 81.855469 170.789062 82.609375 C 167.242188 85.535156 166.066406 90.660156 166.679688 95.042969 C 167.421875 100.335938 171.238281 104.628906 175.296875 107.796875 C 177.574219 109.535156 179.9375 111.136719 182.394531 112.609375 C 185.355469 114.425781 188.316406 116.242188 191.285156 118.050781 L 200.398438 123.625 C 201.535156 124.316406 202.953125 125.003906 203.683594 126.085938 C 204.417969 127.167969 204.316406 128.59375 204.074219 129.863281 C 203.628906 132.019531 202.96875 134.105469 202.09375 136.121094 L 202.09375 136.160156 L 202.03125 136.304688 L 201.851562 136.710938 C 201.722656 137.011719 201.585938 137.304688 201.453125 137.597656 C 201.191406 138.160156 200.925781 138.722656 200.648438 139.277344 C 200.078125 140.433594 199.476562 141.570312 198.84375 142.695312 C 196.320312 147.21875 193.40625 151.480469 190.105469 155.472656 C 188.777344 157.09375 187.351562 158.613281 185.820312 160.042969 C 185.710938 160.15625 185.628906 160.285156 185.570312 160.429688 C 185.511719 160.578125 185.480469 160.730469 185.484375 160.886719 C 185.484375 161.042969 185.515625 161.195312 185.574219 161.34375 C 185.636719 161.488281 185.722656 161.617188 185.835938 161.726562 C 185.945312 161.839844 186.074219 161.925781 186.21875 161.988281 C 186.363281 162.046875 186.515625 162.078125 186.675781 162.082031 C 186.832031 162.082031 186.984375 162.054688 187.128906 161.996094 C 187.277344 161.9375 187.40625 161.855469 187.519531 161.746094 C 190.953125 158.59375 193.84375 154.824219 196.480469 151.003906 C 199.433594 146.8125 201.949219 142.375 204.03125 137.6875 C 204.941406 135.679688 205.667969 133.605469 206.203125 131.46875 C 206.425781 130.582031 206.574219 129.6875 206.640625 128.777344 C 212.824219 129.195312 219.007812 129.207031 225.191406 128.804688 C 226.960938 128.691406 228.722656 128.542969 230.484375 128.359375 C 231.023438 132.101562 232.46875 135.453125 234.8125 138.414062 C 238.242188 142.613281 243.597656 145.238281 249.054688 144.191406 C 252.324219 143.554688 255.199219 141.660156 257.429688 139.175781 C 261.574219 149.003906 264.78125 159.386719 266.019531 169.972656 C 266.671875 175.339844 266.742188 180.710938 266.234375 186.089844 C 265.683594 191.585938 264.261719 196.886719 262.507812 202.113281 C 259.011719 212.53125 254.246094 222.675781 252.460938 233.59375 C 250.953125 242.824219 251.449219 252.902344 256.222656 261.160156 C 258.488281 265.082031 261.777344 268.070312 265 271.175781 C 267.78125 273.859375 271.050781 276.953125 271.710938 280.957031 C 271.816406 281.617188 271.835938 282.285156 271.773438 282.953125 C 266.566406 284.351562 261.292969 285.425781 255.953125 286.171875 C 253.191406 286.558594 250.414062 286.835938 247.632812 287.035156 C 244.996094 287.214844 242.261719 287.484375 239.625 287.289062 C 238.640625 287.28125 237.753906 286.980469 236.960938 286.394531 C 236.148438 285.691406 235.902344 284.546875 235.757812 283.507812 C 235.359375 280.75 235.179688 277.945312 234.894531 275.171875 L 233.105469 257.65625 C 231.960938 246.453125 230.910156 235.234375 229.65625 224.046875 C 228.691406 215.582031 227.421875 207.023438 224.429688 199.023438 C 221.542969 191.253906 216.894531 184.105469 209.855469 179.5 C 202.15625 174.464844 192.53125 173.378906 183.640625 175.066406 C 174.414062 176.8125 166.167969 181.589844 159.414062 188.027344 C 152.546875 194.574219 147.246094 202.628906 142.917969 211.019531 C 138.066406 220.464844 134.199219 230.296875 131.320312 240.515625 C 128.394531 250.867188 126.511719 261.40625 125.671875 272.128906 C 125.507812 274.238281 125.394531 276.347656 125.3125 278.453125 C 121.980469 277.414062 118.867188 275.707031 116.699219 272.882812 C 114.535156 270.054688 113.429688 266.625 113.042969 263.214844 C 112.5625 259.007812 113.152344 254.789062 114.066406 250.703125 C 115.058594 246.253906 116.347656 241.886719 117.359375 237.445312 C 119.402344 228.417969 120.75 219.285156 121.402344 210.054688 C 121.71875 205.597656 121.925781 201.113281 121.832031 196.648438 C 121.738281 192.628906 121.316406 188.503906 119.792969 184.75 C 119.136719 183.027344 118.222656 181.449219 117.050781 180.023438 C 115.878906 178.59375 114.507812 177.390625 112.941406 176.414062 C 110.054688 174.660156 106.484375 173.804688 103.160156 174.660156 C 102.335938 174.878906 101.550781 175.191406 100.800781 175.597656 C 99.4375 176.335938 100.652344 178.414062 102.019531 177.679688 C 103.347656 176.964844 104.761719 176.640625 106.269531 176.714844 C 107.789062 176.800781 109.230469 177.179688 110.597656 177.851562 C 112.089844 178.589844 113.410156 179.5625 114.554688 180.773438 C 115.699219 181.980469 116.605469 183.347656 117.261719 184.875 C 118.871094 188.394531 119.308594 192.359375 119.417969 196.191406 C 119.550781 200.5625 119.347656 204.96875 119.054688 209.335938 C 118.445312 218.417969 117.144531 227.402344 115.15625 236.285156 C 114.167969 240.699219 112.898438 245.042969 111.886719 249.457031 C 110.925781 253.621094 110.222656 257.949219 110.554688 262.242188 C 110.84375 265.945312 111.8125 269.671875 113.792969 272.851562 C 114.859375 274.507812 116.15625 275.953125 117.691406 277.191406 C 119.222656 278.425781 120.914062 279.382812 122.757812 280.070312 C 123.675781 280.429688 124.609375 280.738281 125.558594 280.996094 C 125.71875 281.039062 125.878906 281.054688 126.039062 281.03125 C 126.175781 281.085938 126.316406 281.121094 126.464844 281.140625 C 144.90625 282.980469 163.382812 283.480469 181.894531 282.640625 C 184.152344 282.535156 186.414062 282.414062 188.664062 282.269531 C 190.398438 282.195312 192.113281 281.980469 193.808594 281.625 C 197.179688 280.851562 200.769531 278.671875 201.582031 275.070312 C 201.746094 274.347656 201.78125 273.617188 201.691406 272.882812 C 201.597656 272.144531 201.382812 271.445312 201.046875 270.785156 C 200.710938 270.125 200.269531 269.542969 199.726562 269.035156 C 199.183594 268.527344 198.574219 268.128906 197.890625 267.839844 C 195.710938 266.875 193.300781 266.730469 191.054688 265.972656 C 190.160156 265.699219 189.40625 265.21875 188.78125 264.527344 C 187.785156 263.285156 187.84375 261.640625 188.152344 260.164062 C 189.015625 255.960938 190.371094 251.890625 191.65625 247.808594 C 193.984375 240.449219 196.027344 232.890625 194.8125 225.140625 C 194.113281 220.613281 192.117188 215.855469 188.746094 212.605469 C 189.589844 211.070312 190.335938 209.488281 190.984375 207.863281 C 191.691406 206.117188 192.320312 204.335938 192.933594 202.570312 C 193.445312 201.101562 191.121094 200.472656 190.613281 201.929688 C 189.574219 204.910156 188.460938 208.152344 186.914062 211.109375 C 186.105469 210.535156 185.242188 210.050781 184.332031 209.664062 C 179.105469 207.480469 172.277344 208.703125 168.28125 212.777344 C 166.304688 214.796875 164.34375 218.363281 166.488281 220.929688 C 167.527344 222.171875 169.460938 222.777344 171.003906 223.035156 C 172.808594 223.335938 174.601562 223.292969 176.386719 222.898438 C 181.324219 221.847656 184.871094 218.648438 187.488281 214.683594 C 190.269531 217.570312 191.851562 221.777344 192.476562 225.578125 C 193.648438 232.703125 191.683594 239.773438 189.5625 246.523438 C 188.363281 250.347656 187.085938 254.148438 186.191406 258.074219 C 185.75 260 185.28125 261.925781 185.828125 263.847656 C 186.136719 265.011719 186.742188 265.992188 187.640625 266.792969 C 189.367188 268.285156 191.671875 268.679688 193.839844 269.148438 C 195.765625 269.554688 197.90625 270.007812 198.890625 271.75 C 200.59375 274.761719 197.707031 277.75 195.042969 278.804688 C 191.792969 280.097656 188.007812 279.988281 184.574219 280.167969 C 167.269531 281.078125 149.976562 280.8125 132.707031 279.371094 C 131.039062 279.234375 129.375 279.074219 127.714844 278.914062 C 128.089844 268.445312 129.484375 258.117188 131.894531 247.921875 C 134.300781 237.726562 137.683594 227.863281 142.03125 218.335938 C 145.972656 209.742188 150.660156 201.351562 156.878906 194.183594 C 162.902344 187.226562 170.398438 181.449219 179.253906 178.644531 C 187.636719 175.992188 197.15625 175.800781 205.214844 179.640625 C 212.703125 183.207031 217.90625 189.792969 221.164062 197.277344 C 224.503906 204.976562 225.972656 213.402344 226.976562 221.664062 C 228.292969 232.445312 229.230469 243.277344 230.34375 254.074219 C 230.925781 259.8125 231.511719 265.550781 232.101562 271.289062 C 232.398438 274.175781 232.695312 277.0625 232.984375 279.949219 C 233.226562 282.3125 233.136719 285.214844 234.554688 287.242188 C 235.925781 289.1875 238.289062 289.671875 240.535156 289.703125 C 243.234375 289.742188 245.964844 289.546875 248.652344 289.332031 C 254.253906 288.894531 259.800781 288.101562 265.300781 286.953125 C 267.945312 286.398438 270.574219 285.753906 273.179688 285.027344 C 273.625 284.910156 273.902344 284.628906 274.019531 284.183594 C 275.585938 275.082031 265.949219 269.597656 260.867188 263.613281 Z M 255.328125 137.882812 C 253.675781 139.683594 251.675781 140.933594 249.332031 141.628906 C 248.1875 141.945312 247.019531 142.066406 245.835938 141.992188 C 244.648438 141.917969 243.507812 141.65625 242.40625 141.207031 C 240.121094 140.246094 238.195312 138.800781 236.632812 136.875 C 234.984375 134.859375 233.847656 132.582031 233.226562 130.050781 C 231.65625 123.972656 232.773438 117.539062 234.304688 111.574219 C 235.855469 105.515625 238.035156 99.6875 240.835938 94.097656 C 242.199219 91.375 243.695312 88.734375 245.328125 86.164062 C 246.160156 84.855469 244.078125 83.648438 243.25 84.953125 C 239.773438 90.433594 236.910156 96.222656 234.671875 102.316406 C 233.570312 105.304688 232.636719 108.34375 231.859375 111.433594 C 231.019531 114.636719 230.457031 117.890625 230.175781 121.191406 C 230.054688 122.796875 230.054688 124.402344 230.175781 126.003906 C 223.847656 126.644531 217.507812 126.851562 211.152344 126.628906 C 209.570312 126.578125 207.988281 126.492188 206.402344 126.378906 C 206.03125 125.136719 205.324219 124.121094 204.285156 123.339844 C 202.980469 122.390625 201.628906 121.523438 200.226562 120.730469 L 195.792969 118.015625 L 186.851562 112.511719 C 182.074219 109.585938 177.019531 106.808594 173.203125 102.648438 C 172.335938 101.714844 171.570312 100.703125 170.90625 99.617188 C 170.550781 99.035156 170.230469 98.433594 169.941406 97.816406 C 169.894531 97.71875 169.851562 97.621094 169.8125 97.523438 C 169.8125 97.492188 169.730469 97.316406 169.714844 97.277344 C 169.621094 97.027344 169.53125 96.796875 169.449219 96.511719 C 169.296875 95.992188 169.171875 95.464844 169.074219 94.929688 C 169.074219 94.8125 169.039062 94.703125 169.023438 94.585938 L 169 94.378906 C 168.964844 94.109375 168.945312 93.835938 168.929688 93.5625 C 168.898438 93.015625 168.898438 92.46875 168.929688 91.921875 C 168.929688 91.671875 168.96875 91.414062 169 91.164062 C 168.996094 91.117188 168.996094 91.070312 169 91.027344 L 169 90.964844 C 169.027344 90.808594 169.050781 90.65625 169.082031 90.480469 C 169.171875 89.96875 169.296875 89.464844 169.449219 88.964844 C 169.527344 88.710938 169.613281 88.457031 169.707031 88.207031 L 169.832031 87.886719 C 169.863281 87.820312 169.894531 87.753906 169.921875 87.679688 C 170.140625 87.210938 170.390625 86.753906 170.667969 86.316406 C 170.796875 86.113281 170.9375 85.921875 171.074219 85.722656 C 171.089844 85.707031 171.101562 85.6875 171.109375 85.667969 L 171.15625 85.621094 L 171.433594 85.289062 C 171.769531 84.914062 172.136719 84.566406 172.527344 84.25 L 172.570312 84.210938 L 172.621094 84.171875 C 172.726562 84.105469 172.828125 84.027344 172.929688 83.960938 C 173.15625 83.8125 173.390625 83.675781 173.632812 83.550781 C 173.730469 83.5 173.824219 83.453125 173.921875 83.40625 L 174.070312 83.335938 C 174.3125 83.246094 174.550781 83.15625 174.800781 83.085938 C 175.050781 83.011719 175.285156 82.957031 175.535156 82.90625 L 175.785156 82.863281 L 175.960938 82.863281 C 176.0625 82.863281 176.167969 82.863281 176.273438 82.835938 C 178.640625 82.652344 180.785156 83.28125 183.109375 84.007812 C 185.433594 84.734375 187.78125 85.574219 190.238281 85.859375 C 191.441406 86.027344 192.625 85.953125 193.796875 85.636719 C 194.964844 85.316406 196.027344 84.78125 196.976562 84.027344 C 198.085938 83.023438 199.039062 81.886719 199.835938 80.621094 C 200.601562 79.53125 201.433594 78.492188 202.332031 77.507812 C 204.144531 75.542969 206.171875 73.832031 208.414062 72.375 C 210.65625 70.921875 213.042969 69.765625 215.574219 68.914062 C 218.101562 68.050781 220.695312 67.53125 223.355469 67.351562 C 226.019531 67.175781 228.660156 67.34375 231.277344 67.863281 C 233.941406 68.398438 236.496094 69.253906 238.941406 70.441406 C 241.386719 71.625 243.644531 73.097656 245.714844 74.863281 C 249.859375 78.535156 252.941406 82.949219 254.953125 88.109375 C 257.082031 93.359375 258.25 98.941406 259.074219 104.523438 C 259.476562 107.285156 259.792969 110.105469 260.085938 112.917969 C 260.480469 116.121094 260.671875 119.339844 260.671875 122.570312 C 260.675781 125.703125 260.167969 128.75 259.148438 131.710938 C 258.292969 134.027344 257.019531 136.085938 255.328125 137.882812 Z M 179.820312 219.039062 C 177.152344 220.554688 173.839844 221.320312 170.8125 220.550781 C 169.632812 220.25 167.714844 219.667969 167.925781 218.109375 C 168.144531 217.035156 168.605469 216.070312 169.300781 215.222656 C 172.375 211.226562 178.507812 210.042969 183.09375 211.734375 C 184.03125 212.085938 184.90625 212.554688 185.714844 213.144531 C 184.246094 215.605469 182.28125 217.570312 179.820312 219.039062 Z M 179.820312 219.039062 " fill-opacity="1" fill-rule="nonzero"/></g></svg>